<svg width="25" height="26" viewBox="0 0 25 26" fill="none" xmlns="http://www.w3.org/2000/svg">
<g clip-path="url(#clip0_47_282)">
<path d="M7.323 0.149041C5.993 0.211749 5.08477 0.424041 4.29071 0.735916C3.46904 1.05623 2.77248 1.48592 2.07946 2.18144C1.38654 2.87696 0.959668 3.57394 0.641752 4.39706C0.334043 5.19269 0.125502 6.10175 0.0667517 7.43248C0.00800165 8.76321 -0.00501918 9.19102 0.00154332 12.5856C0.00800166 15.98 0.0230017 16.4055 0.0874808 17.739C0.151022 19.0687 0.362481 19.9768 0.67446 20.771C0.995293 21.5928 1.42446 22.289 2.12029 22.9823C2.81602 23.6755 3.51248 24.1013 4.33748 24.4198C5.13248 24.7271 6.04175 24.9365 7.37227 24.9948C8.70279 25.0531 9.13102 25.0666 12.5246 25.0601C15.9181 25.0536 16.3454 25.0385 17.6785 24.9753C19.0119 24.9121 19.915 24.699 20.7096 24.3885C21.5313 24.0671 22.2281 23.6385 22.9208 22.9426C23.6135 22.2465 24.0401 21.549 24.3578 20.7255C24.6658 19.9305 24.8751 19.0213 24.9328 17.6918C24.9911 16.3575 25.0049 15.9315 24.9984 12.5376C24.9919 9.14352 24.9765 8.718 24.9133 7.38498C24.8501 6.05196 24.6383 5.14675 24.3265 4.35196C24.0053 3.53019 23.5765 2.83446 22.8811 2.14071C22.1856 1.44696 21.4875 1.02071 20.6644 0.703729C19.8687 0.395916 18.9601 0.186228 17.6296 0.128728C16.299 0.0712284 15.8708 0.0563326 12.476 0.0629993C9.08123 0.0694576 8.65623 0.0840409 7.323 0.149041ZM7.46904 22.746C6.25029 22.693 5.58852 22.4905 5.14748 22.321C4.56352 22.096 4.14748 21.824 3.708 21.3887C3.26842 20.9535 2.99852 20.536 2.7705 19.9533C2.59925 19.5123 2.393 18.8512 2.33602 17.6325C2.27404 16.3153 2.26102 15.9198 2.25373 12.5825C2.24644 9.24529 2.25925 8.85019 2.31696 7.53248C2.36904 6.31477 2.57279 5.65227 2.74196 5.21144C2.96696 4.62675 3.238 4.21144 3.67425 3.77227C4.1105 3.333 4.52675 3.06248 5.10998 2.83446C5.55061 2.66248 6.21154 2.458 7.42977 2.39998C8.748 2.33748 9.143 2.32498 12.4798 2.31769C15.8165 2.3104 16.2126 2.3229 17.5313 2.38102C18.749 2.43394 19.4119 2.63571 19.8522 2.80602C20.4363 3.03102 20.8522 3.30123 21.2913 3.73831C21.7306 4.17519 22.0013 4.58998 22.2294 5.17446C22.4015 5.61373 22.6061 6.27446 22.6636 7.49352C22.7263 8.81175 22.7406 9.20706 22.7465 12.5435C22.7526 15.88 22.7408 16.2762 22.683 17.5935C22.6299 18.8123 22.4278 19.4743 22.258 19.9158C22.033 20.4996 21.7619 20.9158 21.3253 21.3548C20.8888 21.7938 20.4731 22.0643 19.8896 22.2923C19.4496 22.464 18.7878 22.669 17.5706 22.7271C16.2523 22.789 15.8573 22.8021 12.5193 22.8094C9.18123 22.8166 8.78727 22.8031 7.46904 22.746ZM17.6594 5.88071C17.6598 6.17741 17.7483 6.46729 17.9136 6.7137C18.0788 6.96012 18.3135 7.15198 18.5878 7.26504C18.8621 7.37809 19.1638 7.40726 19.4547 7.34885C19.7456 7.29043 20.0126 7.14706 20.222 6.93687C20.4314 6.72668 20.5738 6.45911 20.6311 6.168C20.6884 5.8769 20.6581 5.57533 20.544 5.30144C20.4299 5.02755 20.2372 4.79365 19.9902 4.62931C19.7431 4.46498 19.4529 4.37759 19.1562 4.37821C18.7585 4.37904 18.3774 4.53778 18.0967 4.81954C17.816 5.10129 17.6587 5.48299 17.6594 5.88071ZM6.08175 12.574C6.08873 16.119 8.96779 18.9862 12.512 18.9796C16.0563 18.9728 18.9255 16.094 18.9188 12.549C18.9121 9.00404 16.0324 6.13602 12.4876 6.143C8.94279 6.14998 6.07508 9.02946 6.08175 12.574ZM8.33331 12.5696C8.33169 11.7455 8.57447 10.9394 9.03095 10.2533C9.48743 9.56721 10.1371 9.03188 10.8978 8.71501C11.6586 8.39814 12.4962 8.31397 13.3047 8.47313C14.1133 8.6323 14.8565 9.02766 15.4404 9.60921C16.0243 10.1908 16.4226 10.9324 16.585 11.7403C16.7473 12.5483 16.6665 13.3862 16.3526 14.1482C16.0388 14.9102 15.5061 15.562 14.8218 16.0212C14.1375 16.4804 13.3324 16.7264 12.5083 16.728C11.9611 16.7292 11.419 16.6225 10.9131 16.4141C10.4071 16.2058 9.94713 15.8998 9.55943 15.5136C9.17174 15.1274 8.86391 14.6687 8.65353 14.1635C8.44315 13.6584 8.33434 13.1168 8.33331 12.5696Z" fill="#E6D0B8"/>
</g>
<defs>
<clipPath id="clip0_47_282">
<rect width="25" height="25" fill="white" transform="translate(0 0.0615234)"/>
</clipPath>
</defs>
</svg>
